<svg xmlns="http://www.w3.org/2000/svg" viewBox="0 0 93.8 47.032" height="177.759" width="354.52" xmlns:v="https://vecta.io/nano"><defs><linearGradient id="A" x1="66.054" y1="1.217" x2="61.416" y2="84.066" gradientUnits="userSpaceOnUse"><stop offset="0" stop-color="#313aff"/><stop offset="1" stop-color="#ececec" stop-opacity="0"/></linearGradient></defs><path d="M7.923 13.911c-.877-.003-1.753.073-2.616.229a6.59 6.59 0 0 0-2.337.939c-.66.423-1.211.974-1.651 1.651s-.694 1.524-.762 2.54v.051c0 .999.161 1.82.483 2.464s.762 1.177 1.321 1.6c.525.389 1.211.728 2.057 1.016a23.45 23.45 0 0 0 2.718.737l1.423.304c.576.102 1.016.254 1.321.457.322.186.483.466.483.838 0 .288-.077.516-.229.686-.135.169-.322.305-.559.407-.22.085-.465.144-.736.178a6.35 6.35 0 0 1-.788.051c-.847 0-1.592-.153-2.235-.457-.627-.305-1.025-.821-1.194-1.549H0c.119 1.185.431 2.193.939 3.023.525.813 1.16 1.465 1.905 1.956a7.34 7.34 0 0 0 2.413 1.016c.864.186 1.719.28 2.566.28a11.06 11.06 0 0 0 2.591-.305 7.32 7.32 0 0 0 2.311-1.016c.677-.457 1.219-1.05 1.626-1.778.423-.745.635-1.651.635-2.718-.034-.931-.194-1.685-.482-2.261-.288-.593-.677-1.075-1.168-1.447s-1.067-.661-1.728-.864l-2.057-.609-1.651-.407c-.914-.237-1.608-.457-2.083-.66s-.712-.508-.712-.914.212-.711.635-.915.923-.304 1.499-.304c.83 0 1.499.161 2.007.483a1.76 1.76 0 0 1 .889 1.295h4.445c-.119-1.101-.39-2.041-.813-2.819a5.36 5.36 0 0 0-1.702-1.93c-.559-.389-1.202-.686-1.931-.889a8.04 8.04 0 0 0-2.21-.356zm69.596.229v17.983h7.086c2.896 0 5.148-.753 6.757-2.26 1.626-1.507 2.438-3.768 2.438-6.782 0-1.473-.22-2.768-.66-3.886-.423-1.118-1.033-2.049-1.829-2.794s-1.769-1.304-2.921-1.676c-1.135-.389-2.413-.584-3.835-.584h-7.036zm4.597 4.267h2.362c.914 0 1.668.127 2.261.381.61.237 1.092.567 1.448.99s.601.923.736 1.499c.152.576.228 1.203.228 1.88 0 .694-.076 1.337-.228 1.93-.152.576-.407 1.075-.762 1.499-.339.406-.796.728-1.371.965-.576.22-1.287.33-2.134.33h-2.54z" fill="url(#A)"/><ellipse cx="45.387" cy="23.516" rx="23.264" ry="22.866" fill="#0c66ff" fill-opacity=".151" stroke="#202ef5" stroke-width="1.3" stroke-dasharray="0.13, 0.13"/></svg>