<?xml version="1.0" encoding="UTF-8" standalone="no"?>
<svg
   viewBox="0 0 93.800003 47.031878"
   height="177.75876"
   width="354.51956"
   version="1.1"
   id="svg86"
   sodipodi:docname="sd-fav.svg"
   inkscape:version="1.2.2 (b0a8486541, 2022-12-01)"
   xmlns:inkscape="http://www.inkscape.org/namespaces/inkscape"
   xmlns:sodipodi="http://sodipodi.sourceforge.net/DTD/sodipodi-0.dtd"
   xmlns="http://www.w3.org/2000/svg"
   xmlns:svg="http://www.w3.org/2000/svg">
  <sodipodi:namedview
     id="namedview88"
     pagecolor="#ffffff"
     bordercolor="#000000"
     borderopacity="0.25"
     inkscape:showpageshadow="2"
     inkscape:pageopacity="0.0"
     inkscape:pagecheckerboard="0"
     inkscape:deskcolor="#d1d1d1"
     showgrid="false"
     inkscape:zoom="2.5691756"
     inkscape:cx="147.32352"
     inkscape:cy="36.198382"
     inkscape:window-width="1920"
     inkscape:window-height="1011"
     inkscape:window-x="0"
     inkscape:window-y="32"
     inkscape:window-maximized="1"
     inkscape:current-layer="svg86" />
  <defs
     id="defs80">
    <linearGradient
       id="A"
       x1="103.444"
       y1="44.994999"
       x2="98.806"
       y2="127.844"
       gradientUnits="userSpaceOnUse"
       gradientTransform="translate(-37.39,-43.778061)">
      <stop
         offset="0"
         stop-color="#313aff"
         id="stop75" />
      <stop
         offset="1"
         stop-color="#ececec"
         stop-opacity="0"
         id="stop77" />
    </linearGradient>
  </defs>
  <path
     d="m 7.923,13.910939 c -0.877141,-0.0032 -1.75275,0.07348 -2.616,0.229 -0.832124,0.159844 -1.625612,0.478666 -2.337,0.939 -0.66,0.423 -1.211,0.974 -1.651,1.651 -0.44,0.677 -0.694,1.524 -0.762,2.54 v 0.051 c 0,0.999 0.161,1.82 0.483,2.464 0.322,0.644 0.762,1.177 1.321,1.6 0.525,0.389 1.211,0.728 2.057,1.016 0.890417,0.299895 1.798054,0.546006 2.718,0.737 l 1.423,0.304 c 0.576,0.102 1.016,0.254 1.321,0.457 0.322,0.186 0.483,0.466 0.483,0.838 0,0.288 -0.077,0.516 -0.229,0.686 -0.135,0.169 -0.322,0.305 -0.559,0.407 -0.22,0.085 -0.465,0.144 -0.736,0.178 -0.261354,0.03333 -0.52453,0.05036 -0.788,0.051 -0.847,0 -1.592,-0.153 -2.235,-0.457 -0.627,-0.305 -1.025,-0.821 -1.194,-1.549 H 0 c 0.119,1.185 0.431,2.193 0.939,3.023 0.525,0.813 1.16,1.465 1.905,1.956 0.736944,0.480542 1.554277,0.824682 2.413,1.016 0.864,0.186 1.719,0.28 2.566,0.28 0.872675,9.09e-4 1.742391,-0.10147 2.591,-0.305 0.864,-0.22 1.634,-0.559 2.311,-1.016 0.677,-0.457 1.219,-1.05 1.626,-1.778 0.423,-0.745 0.635,-1.651 0.635,-2.718 -0.034,-0.931 -0.194,-1.685 -0.482,-2.261 -0.288,-0.593 -0.677,-1.075 -1.168,-1.447 -0.491,-0.372 -1.067,-0.661 -1.728,-0.864 l -2.057,-0.609 -1.651,-0.407 c -0.914,-0.237 -1.608,-0.457 -2.083,-0.66 -0.475,-0.203 -0.712,-0.508 -0.712,-0.914 0,-0.406 0.212,-0.711 0.635,-0.915 0.423,-0.204 0.923,-0.304 1.499,-0.304 0.83,0 1.499,0.161 2.007,0.483 0.508,0.305 0.804,0.736 0.889,1.295 h 4.445 c -0.119,-1.101 -0.39,-2.041 -0.813,-2.819 -0.423,-0.796 -0.991,-1.439 -1.702,-1.93 -0.559,-0.389 -1.202,-0.686 -1.931,-0.889 -0.716462,-0.221139 -1.460337,-0.340967 -2.21,-0.356 z m 69.596002,0.229 v 17.983 h 7.086 c 2.896,0 5.148,-0.753 6.757,-2.26 1.626,-1.507 2.438,-3.768 2.438,-6.782 0,-1.473 -0.22,-2.768 -0.66,-3.886 -0.423,-1.118 -1.033,-2.049 -1.829,-2.794 -0.796,-0.745 -1.769,-1.304 -2.921,-1.676 -1.135,-0.389 -2.413,-0.584 -3.835,-0.584 h -7.036 z m 4.597,4.267 h 2.362 c 0.914,0 1.668,0.127 2.261,0.381 0.61,0.237 1.092,0.567 1.448,0.99 0.356,0.423 0.601,0.923 0.736,1.499 0.152,0.576 0.228,1.203 0.228,1.88 0,0.694 -0.076,1.337 -0.228,1.93 -0.152,0.576 -0.407,1.075 -0.762,1.499 -0.339,0.406 -0.796,0.728 -1.371,0.965 -0.576,0.22 -1.287,0.33 -2.134,0.33 h -2.54 z"
     fill="url(#A)"
     id="path82"
     sodipodi:nodetypes="cccscsscccccsccccccccccccscccscccssssccccccccccscscscscccscscscccscc"
     style="fill:url(#A)" />
  <ellipse
     cx="45.386669"
     cy="23.51594"
     rx="23.264"
     ry="22.865999"
     fill="#0c66ff"
     fill-opacity="0.151"
     stroke="#202ef5"
     stroke-width="1.3"
     stroke-dasharray="0.13, 0.13"
     id="ellipse84" />
  <text
     xml:space="preserve"
     style="font-weight:900;font-size:25.4px;font-family:Onest;-inkscape-font-specification:'Onest Heavy';fill:#0c66ff;fill-opacity:0.150757;stroke:#202ef5;stroke-width:1.3;stroke-dasharray:0.13, 0.13"
     x="6.1524301"
     y="26.266045"
     id="text371"><tspan
       sodipodi:role="line"
       id="tspan369"
       style="stroke-width:1.3"
       x="6.1524301"
       y="26.266045" /></text>
</svg>
