<svg xmlns="http://www.w3.org/2000/svg" viewBox="0 0 139.749 47.033" height="177.763" width="528.185" xmlns:v="https://vecta.io/nano"><defs><linearGradient id="A" x1="103.444" y1="44.995" x2="98.806" y2="127.844" gradientUnits="userSpaceOnUse"><stop offset="0" stop-color="#313aff"/><stop offset="1" stop-color="#ececec" stop-opacity="0"/></linearGradient></defs><path d="M135.636 56.165c-.339 0-.669.059-.991.178s-.61.297-.864.534a3.13 3.13 0 0 0-.635.838c-.152.322-.229.694-.229 1.117 0 .457.077.855.229 1.194.152.322.355.593.609.813a2.77 2.77 0 0 0 .864.508c.322.102.66.152 1.016.152.728 0 1.363-.22 1.905-.66.542-.457.813-1.126.813-2.007 0-.423-.076-.796-.228-1.117a2.74 2.74 0 0 0-.61-.838 2.29 2.29 0 0 0-.838-.534 2.99 2.99 0 0 0-1.041-.178zm-90.323 1.524a14.46 14.46 0 0 0-2.616.229 6.59 6.59 0 0 0-2.337.939c-.66.423-1.211.974-1.651 1.651s-.694 1.524-.762 2.54v.051c0 .999.161 1.82.483 2.464s.762 1.177 1.321 1.6c.525.389 1.211.728 2.057 1.016a23.45 23.45 0 0 0 2.718.737l1.423.304c.576.102 1.016.254 1.321.457.322.186.483.466.483.838 0 .288-.077.516-.229.686-.135.169-.322.305-.559.407-.22.085-.465.144-.736.178a6.35 6.35 0 0 1-.788.051c-.847 0-1.592-.153-2.235-.457-.627-.305-1.025-.821-1.194-1.549h-4.622c.119 1.185.431 2.193.939 3.023.525.813 1.16 1.465 1.905 1.956a7.34 7.34 0 0 0 2.413 1.016c.864.186 1.719.28 2.566.28a11.06 11.06 0 0 0 2.591-.305c.864-.22 1.634-.559 2.311-1.016s1.219-1.05 1.626-1.778c.423-.745.635-1.651.635-2.718-.034-.931-.194-1.685-.482-2.261-.288-.593-.677-1.075-1.168-1.447s-1.067-.661-1.728-.864l-2.057-.609-1.651-.407c-.914-.237-1.608-.457-2.083-.66s-.712-.508-.712-.914.212-.711.635-.915.923-.304 1.499-.304c.83 0 1.499.161 2.007.483.508.305.804.736.889 1.295h4.445c-.119-1.101-.39-2.041-.813-2.819-.423-.796-.991-1.439-1.702-1.93-.559-.389-1.202-.686-1.931-.889a8.04 8.04 0 0 0-2.21-.356zm69.596.229v17.983h7.086c2.896 0 5.148-.753 6.757-2.26 1.626-1.507 2.438-3.768 2.438-6.782 0-1.473-.22-2.768-.66-3.886-.423-1.118-1.033-2.049-1.829-2.794s-1.769-1.304-2.921-1.676c-1.135-.389-2.413-.584-3.835-.584h-7.036zm4.597 4.267h2.362c.914 0 1.668.127 2.261.381.61.237 1.092.567 1.448.99s.601.923.736 1.499c.152.576.228 1.203.228 1.88 0 .694-.076 1.337-.228 1.93-.152.576-.407 1.075-.762 1.499-.339.406-.796.728-1.371.965-.576.22-1.287.33-2.134.33h-2.54v-9.474zm-56.515.051c-.813 0-1.541.127-2.184.381s-1.27.711-1.879 1.371l-.229-1.473h-4.166v18.491h4.496v-6.248c.356.356.864.669 1.524.939.677.271 1.414.407 2.21.407.965.034 1.82-.119 2.565-.457a5.54 5.54 0 0 0 1.931-1.473 6.16 6.16 0 0 0 1.194-2.26c.254-.881.381-1.829.381-2.845 0-.931-.127-1.811-.381-2.641s-.627-1.549-1.118-2.159c-.491-.627-1.092-1.118-1.804-1.473s-1.558-.542-2.54-.559zm28.778 0c-1.067 0-2.023.16-2.87.482-.847.305-1.575.754-2.184 1.347-.593.593-1.058 1.329-1.397 2.21-.322.864-.483 1.837-.483 2.921 0 1.101.161 2.083.483 2.947.322.847.77 1.566 1.346 2.159.593.593 1.312 1.041 2.159 1.346s1.795.457 2.845.457a7.99 7.99 0 0 0 2.387-.356c.762-.237 1.431-.584 2.007-1.041a5.18 5.18 0 0 0 1.371-1.752c.356-.694.551-1.499.584-2.413h-4.471c-.085.457-.305.822-.66 1.092-.339.254-.779.381-1.321.381-.406 0-.762-.076-1.067-.228a2.34 2.34 0 0 1-.712-.635 2.85 2.85 0 0 1-.381-.864c-.085-.322-.127-.652-.127-.991 0-.322.034-.652.102-.991a3 3 0 0 1 .356-.94 2.19 2.19 0 0 1 .736-.736c.305-.186.686-.28 1.143-.28.491 0 .906.127 1.245.381.356.254.584.627.686 1.118h4.318c-.034-.897-.212-1.693-.534-2.387-.305-.694-.728-1.279-1.27-1.753-.542-.491-1.186-.855-1.931-1.092-.728-.254-1.515-.381-2.362-.381zm14.3 0c-1.016 0-1.922.16-2.718.482a6.33 6.33 0 0 0-2.058 1.296c-.643.627-1.143 1.38-1.499 2.261-.356.864-.533 1.82-.533 2.87 0 1.101.161 2.083.483 2.947a6.62 6.62 0 0 0 1.397 2.184c.593.593 1.304 1.05 2.134 1.371.847.305 1.787.457 2.819.457a9.08 9.08 0 0 0 2.159-.254c.694-.186 1.329-.474 1.905-.864a5.7 5.7 0 0 0 1.473-1.448c.406-.593.703-1.312.889-2.159h-4.394c-.085.237-.305.466-.66.686-.356.203-.796.297-1.321.28-.813-.017-1.414-.203-1.804-.559-.373-.373-.584-.804-.635-1.296h8.636a5.02 5.02 0 0 0 .127-.813c.034-.271.051-.567.051-.889 0-.948-.152-1.837-.457-2.667-.288-.83-.72-1.541-1.296-2.134-.61-.593-1.287-1.033-2.032-1.321-.728-.288-1.617-.431-2.667-.431zm65.126 0c-.813 0-1.541.127-2.185.381s-1.27.711-1.879 1.371l-.228-1.473h-4.166v18.491h4.496v-6.248c.356.356.864.669 1.524.939.677.271 1.414.407 2.21.407.965.034 1.821-.119 2.566-.457.762-.356 1.405-.847 1.93-1.473a6.16 6.16 0 0 0 1.194-2.26c.254-.881.381-1.829.381-2.845 0-.931-.127-1.811-.381-2.641s-.626-1.549-1.117-2.159c-.491-.627-1.092-1.118-1.804-1.473s-1.558-.542-2.54-.559zm-94.438.025c-.745 0-1.465.093-2.159.279s-1.329.475-1.905.864a4.81 4.81 0 0 0-1.448 1.473c-.389.593-.635 1.304-.736 2.134h4.471c.051-.288.254-.525.609-.711a2.69 2.69 0 0 1 1.22-.28c.593 0 1.05.169 1.371.508.339.322.516.72.533 1.194H76.53l-1.524.051c-.474.034-.949.11-1.423.228a5.6 5.6 0 0 0-1.295.457c-.559.288-1.042.72-1.448 1.296-.389.576-.584 1.253-.584 2.032 0 .762.127 1.414.381 1.955.254.525.584.965.991 1.321a3.93 3.93 0 0 0 1.397.788c.542.169 1.092.254 1.651.254l.762-.026a4.55 4.55 0 0 0 1.092-.203 4.48 4.48 0 0 0 1.194-.559c.406-.271.779-.66 1.118-1.168v1.752h4.14v-7.188c0-2.523-.711-4.301-2.134-5.334-.491-.373-1.076-.652-1.753-.838-.66-.186-1.439-.279-2.337-.279zm71.857 0c-.254 0-.533.017-.838.051-.288.017-.601.085-.939.203-.322.119-.652.288-.991.508s-.652.525-.94.915l-.406-1.423h-3.963v13.386h4.496v-7.086l.025-.736a3.18 3.18 0 0 1 .203-.813 1.57 1.57 0 0 1 .534-.66c.254-.169.593-.254 1.016-.254.339 0 .601.077.787.229a1.27 1.27 0 0 1 .457.533c.102.22.161.449.178.686.034.237.051.44.051.61v7.493h4.496v-7.214l.025-.686a2.8 2.8 0 0 1 .204-.736 1.75 1.75 0 0 1 .508-.61c.237-.169.55-.271.939-.305.356 0 .635.077.838.229.203.135.347.313.432.533a1.74 1.74 0 0 1 .178.66 4.69 4.69 0 0 1 .051.66v7.467h4.496v-8.305c0-.813-.084-1.541-.254-2.184-.169-.66-.432-1.219-.788-1.676-.356-.474-.821-.838-1.397-1.092-.559-.254-1.219-.381-1.981-.381a7.36 7.36 0 0 0-1.041.076c-.339.034-.686.119-1.042.254s-.694.322-1.016.559a4.67 4.67 0 0 0-.914.915c-.423-.711-.949-1.186-1.575-1.423-.61-.254-1.219-.381-1.829-.381zm-15.189.254v13.386h4.47V62.515h-4.47zm-27.356 3.277c.406 0 .745.059 1.016.178.288.102.525.246.711.432.186.169.313.364.381.584a1.52 1.52 0 0 1 .127.584h-4.521a1.52 1.52 0 0 1 .127-.584 2.01 2.01 0 0 1 .406-.584c.186-.186.424-.33.712-.432.305-.119.652-.178 1.041-.178zm-44.349.559c.508 0 .932.093 1.27.28.339.169.61.389.813.66.22.271.373.567.457.889.102.322.152.635.152.94 0 .356-.042.703-.127 1.041-.068.339-.203.643-.407.914-.186.271-.448.5-.787.686-.322.169-.737.254-1.245.254-.491 0-.914-.084-1.27-.254s-.652-.381-.889-.635a2.44 2.44 0 0 1-.508-.915c-.102-.356-.152-.719-.152-1.092a3.27 3.27 0 0 1 .152-.991c.119-.339.288-.635.508-.889a2.56 2.56 0 0 1 .838-.635c.339-.169.737-.254 1.194-.254zm108.204 0c.508 0 .932.093 1.27.28.339.169.609.389.812.66.22.271.373.567.457.889.102.322.152.635.152.94 0 .356-.042.703-.127 1.041-.068.339-.203.643-.406.914-.186.271-.449.5-.788.686-.322.169-.736.254-1.244.254-.491 0-.915-.084-1.27-.254a2.91 2.91 0 0 1-.889-.635 2.44 2.44 0 0 1-.508-.915c-.102-.356-.152-.719-.152-1.092a3.27 3.27 0 0 1 .152-.991c.119-.339.288-.635.508-.889a2.56 2.56 0 0 1 .838-.635c.339-.169.737-.254 1.194-.254zm-93.675 4.14h2.515a1.76 1.76 0 0 1-.254.813 2.72 2.72 0 0 1-.559.711 2.41 2.41 0 0 1-.813.483 2.71 2.71 0 0 1-.991.178c-.406 0-.754-.093-1.042-.28-.271-.186-.406-.457-.406-.812 0-.389.153-.669.457-.838s.669-.254 1.092-.254z" fill="url(#A)" transform="translate(-37.339 -43.778)"/><ellipse cx="70.393" cy="23.516" rx="23.264" ry="22.866" fill="#0c66ff" fill-opacity=".151" stroke="#202ef5" stroke-width="1.3" stroke-dasharray="0.13, 0.13"/></svg>